<?xml version="1.0" encoding="utf-8"?>

<svg version="1.0" id="Layer_1" xmlns="http://www.w3.org/2000/svg" xmlns:xlink="http://www.w3.org/1999/xlink" x="0px" y="0px"
	 viewBox="0 0 185.26607 48" enable-background="new 0 0 185.26607 48" xml:space="preserve">
<g>
	<g>
		<path fill="#008275" d="M24.9784,22.35454c-1.33747-0.06239-0.51384,1.31314-0.6996,5.22008
			c-0.12478,2.61362,0.54325,1.22514,2.53056-0.7964c1.02702-0.60765,2.47976-2.24508,3.15897-2.93802
			c-2.49227,2.83927-2.86789,2.7401-3.49801,3.3036c2.9937-2.12737,2.80683-2.37803,4.15296-3.74385
			C31.82952,22.17638,27.31614,22.46315,24.9784,22.35454z"/>
		<path fill="#008275" d="M8.12509,5.98762C7.99761,5.886,7.78978,5.84483,7.63383,5.89061
			c-0.26891,0.22495-4.24725,5.05191-4.81574,5.52355c-1.22869,1.00136,2.33776,0.27176,3.38586,0.32587
			c0.08056,0.0041,1.34441,0.22412,1.56878,0.12087c0.76032-0.35002,0.40477-1.39479,0.39293-2.32436
			C8.13033,6.73097,8.43506,6.23478,8.12509,5.98762z"/>
		<path fill="#008275" d="M24.33862,12.27032c0.81973-0.09534,1.03089,0.23099,1.77952,0.0446
			c0.5885-0.14652,0.53704,0.08404,2.08909,0.09543c0.52521,0.00369,1.04193-0.1349,1.5842-0.12005
			c0.25055,0.00686,0.26043-0.05603,0.22832-0.33249c-0.11335-0.97446-4.1082-3.9737-4.88273-4.56115
			c-0.20667-0.15676-1.25595-1.22999-1.99704-1.73969c-0.32757-0.22525-1.08014-0.20445-0.96029,0.34755
			c0.04548,0.18745-0.01526,0.36179-0.00328,0.54657c0.00806,0.12547,0.33609,1.71612,0.27477,3.84925
			c-0.00988,0.34704-0.08804,0.62985,0.05649,0.95947C22.80165,12.02991,23.63328,12.35226,24.33862,12.27032z"/>
		<path fill="#008275" d="M8.7219,28.18777c-0.41879-0.69819-1.39079-0.5014-2.08478-0.50109
			c-4.22389,0.00224-3.00028-0.03688-1.18769,2.14818c0.80968,0.97592,1.29085,1.78654,1.75812,1.96626
			c0.67415,0.25818,1.06184,0.68195,1.39982,0.22084c0.09129-0.12426,0.31753-0.6559,0.23662-0.91758
			C8.75783,30.82549,8.98365,28.62402,8.7219,28.18777z"/>
	</g>
	<path fill="#485351" d="M12.09351,18.9109c-1.10647,0-2.24336-0.08654-2.78167-0.13409l-7.91987-0.11409
		c-0.03871,0.00055-0.07327-0.00277-0.10893-0.0094c-0.48301-0.08958-1.40028-0.4596-1.32895-1.99711
		c0.03898-0.83082-0.05963-1.5035-0.07207-2.12226c-0.0141-0.71912,0.29454-1.16444,1.0145-1.17965l8.76424-0.06947
		C9.6334,12.55768,9.76103,10.6787,9.77928,9.9687c0.02157-0.84188-0.11437-3.98316-0.11796-5.10788
		c-0.00111-0.30966,0.0047-0.46983,0.22644-0.66171c0.51702-0.44679,1.41364-0.31187,2.20382-0.19326
		c0.22008,0.0329,0.449,0.06718,0.56181,0.06746l0,0c0.08847,0,0.19796-0.01078,0.3174-0.02129
		c0.54467-0.04921,1.36747-0.12165,1.95637,0.3832c0.34975,0.2997,0.54577,0.74207,0.58254,1.31494
		c0.04838,0.74816,0.05253,2.02909,0.0564,3.15906c0.00304,0.87202,0.00664,1.95693,0.03788,2.14659
		c0.08267,0.48688,0.21759,4.39133,0.24386,5.16907c0.00055,0.01935,0.00028,0.03898-0.00111,0.05834
		c-0.01161,0.16589,0.09154,1.68591-0.97402,2.32513C14.42205,18.87876,13.15409,18.9109,12.09351,18.9109z M9.33341,17.64406
		c0.01686,0,0.03345,0.00083,0.05004,0.00221c1.92513,0.17086,4.77057,0.21455,5.10263-0.12901
		c0.3067-0.31732,0.04222-1.21896,0.0718-1.52806c-0.07465-2.21184-0.02251-4.46115-0.07034-4.74454
		c-0.04479-0.26404-0.04949-1.01938-0.05391-2.33156c-0.00359-1.11366-0.00802-2.37635-0.05419-3.09022
		c-0.01631-0.25685-0.08018-0.43435-0.18939-0.52808c-0.22671-0.19437-0.74207-0.14875-1.11864-0.11474
		c-0.15068,0.01327-0.30385,0.02239-0.42218,0.02571c-0.19602-0.00055-0.44154-0.03732-0.72576-0.08018
		c-0.25839-0.03883-0.74802-0.21301-1.05053-0.22582c-0.07706-0.00326-0.13931,0.06039-0.1389,0.13752
		c0.00685,1.27815,0.09447,3.66343,0.07416,4.44631c-0.02544,0.9898-0.09804,3.76694-0.09721,3.78851
		c0.00664,0.15234-0.00652,0.64935-0.11075,0.7605s-0.24911,0.17584-0.40145,0.17916l-9.04274,0.15701
		c-0.09649,0.00194-0.17335,0.08129-0.17142,0.17667c0.01244,0.63563,0.14091,1.30148,0.10082,2.16355
		c-0.03567,0.76281,0.05327,0.81589,0.16497,0.86842L9.33341,17.64406z"/>
	<path fill="#485351" d="M19.91928,14.59007c-0.30662,0-0.55877-0.24496-0.56568-0.55324
		c-0.00276-0.11419-0.06442-2.81291-0.03511-3.78142c0.00581-0.1952,0.01604-0.44126,0.02737-0.71194
		c0.03152-0.75368,0.0705-1.69178,0.04368-2.21461c-0.02295-0.44347-0.08239-1.13219-0.1399-1.7985
		c-0.05889-0.67904-0.11944-1.38157-0.14322-1.84661c-0.02488-0.48716,0.06592-1.68491,0.04242-2.36532l-5.5999-0.09178
		l-0.08916,2.30117c-0.01825,0.31187-0.10755,0.52522-0.42467,0.50725c-0.31215-0.01825-0.42292-0.27777-0.40495-0.59019
		L12.77172,1.003c0.01714-0.29196,0.25381-0.5231,0.54605-0.53305l6.22854-0.21234c0.15538-0.0094,0.29639,0.04977,0.40615,0.15234
		s0.17418,0.24468,0.17916,0.39509c0.00055,0.02101,0.06995,2.11839,0.10562,2.82093
		c0.02295,0.44513,0.08267,1.13744,0.14045,1.80707c0.05861,0.67572,0.11889,1.37466,0.14266,1.83776
		c0.02958,0.57536-0.01051,1.54248-0.04313,2.31967c-0.01106,0.2657-0.02101,0.50734-0.02682,0.69922
		c-0.02848,0.93865,0.03456,3.69322,0.03511,3.72115c0.00747,0.31242-0.24026,0.57176-0.55296,0.57895L19.91928,14.59007z"/>
	<path fill="#485351" d="M23.64015,20.57374c-0.30717,0-0.83752-0.11668-0.84415-0.42523
		c-0.00636-0.3127,0.57601-0.49261,0.88844-0.49925c0.23141-0.0047,5.62715-0.22245,6.91832-0.18347
		c1.01717,0.03124,1.97868-0.0462,2.38261-0.24029c0.00443-0.27565,0.09745,0.05272-0.10023-0.87957
		c-0.0224-0.10534-0.18735-1.35558-0.20118-1.42553c-0.05557-0.27731-0.0407-0.85015,0.00409-1.27759
		c0.02101-0.20155,0.20882-0.7796,0.21214-0.9889c-0.25932-0.08458-2.60682,0.06877-3.21623,0.13818
		c-0.03516,0.004-4.81495-0.00987-5.81968,0.02497c-1.11532,0.03926-2.47404-0.18416-2.51164-0.19715
		c-0.29528-0.10257-0.61968-0.27452-0.51683-0.5698c0.10258-0.29473,0.77455-0.11317,1.07026-0.01161
		c0.01604,0.00551,0.57333,0.04402,1.46498,0.01333c1.02436-0.03539,6.39018-0.11585,6.61468-0.11585
		c0.05032,0.00138,2.86619,0.05247,3.34644,0.05247c0.21317,0,0.40891,0.08681,0.55103,0.24469
		c0.32901,0.36495,0.26431,0.98648,0.18939,1.70588c-0.02599,0.24883-0.06525,0.62484-0.04369,0.73406
		c0.01327,0.06691,0.0318,0.15317,0.05309,0.25326c0.38597,1.82007,0.25949,2.74333-0.04408,3.09722
		c-0.44762,0.52199-2.25006,0.42375-3.47321,0.38504c-1.26351-0.03898-6.59709,0.16377-6.65322,0.16515
		C23.91147,20.57375,23.64015,20.57375,23.64015,20.57374z M33.25502,19.08563L33.25502,19.08563L33.25502,19.08563z
		 M33.36243,18.92334L33.36243,18.92334L33.36243,18.92334z"/>
	<path fill="#485351" d="M19.5488,35.14608c-0.87838,0-1.78542-0.11099-2.0959-0.37392
		c-0.27648-0.23362-0.39804-0.70485-0.55222-2.70579c-0.10248-1.32996-0.13262-7.39352-0.19096-8.79713
		c-0.09102-2.19001,0.03917-5.14272,0.03751-5.22317c-0.00553-0.29639,0.21786-0.54688,0.51287-0.5748
		c0.26404-0.02488,2.60417-0.2375,3.52733-0.02765c0.30496,0.0694,0.8447,0.07547,0.7753,0.38043
		c-0.06912,0.30468-0.71709,0.62465-1.02426,0.55415c-0.46781-0.10672-1.86732,0.04241-2.86033-0.0337
		c0.03373,1.84661,0.06858,7.59372,0.177,10.19894c0.10658,2.56095-0.50842,5.21877,0.07329,5.27324
		c0.36938,0.12774,2.33184,0.45701,3.55886,0.3525c0.12386-0.46006,0.1326-4.00073,0.1326-4.67673
		c0-0.21289-0.06809-1.41969-0.06422-2.14019c0.01106-2.08245,0.19041-5.42728,0.16166-5.94098
		c-0.04037-0.72908-0.13038-2.721-0.12837-2.80324c0.01321-0.54063,0.21924-1.00546,0.5347-0.98168
		c0.31215,0.01852,0.39696,0.43203,0.37816,0.74445c-0.0011,0.01935-0.00731,2.323,0.02946,2.98738
		c0.0282,0.50568,0.05963,3.12459,0.04387,6.02404c-0.00359,0.71746-0.00664,1.26655-0.00664,1.47834
		c0,0.86262-0.24902,5.6719-0.25676,5.86488c-0.01106,0.2809-0.22644,0.51121-0.50596,0.54079
		C21.05958,35.34506,20.29198,35.14608,19.5488,35.14608z M18.37708,33.96192L18.37708,33.96192L18.37708,33.96192z"/>
	<path fill="#485351" d="M18.40306,47.99965c-0.26266,0-0.51563-0.01659-0.73212-0.03096l-4.89204-0.27897
		c-0.30302-0.01742-0.53858-0.27012-0.53416-0.5737l0.03926-2.70149c-0.00138-0.04949-0.03926-1.71749-0.03926-2.53643
		c0-0.83524,0.18563-2.52808,0.19226-2.60881c0.02488-0.31187,0.2671-0.60925,0.57648-0.5816
		c0.31187,0.02488,0.38597,0.28671,0.36081,0.5983c-0.00138,0.01935,0.01065,7.30389,0.01065,7.30389l4.36037,0.24883
		c1.06694,0.07022,1.37991-0.02129,1.45428-0.11087c0.07603-0.27206,0.04811-1.43051-0.0235-2.34427
		c-0.00111-0.0141-0.00166-0.02793-0.00166-0.04203l-0.03898-9.62593c-0.00138-0.3127,0.25243-0.56706,0.56512-0.56844l0,0
		c0.31159,0,0.56595,0.25187,0.56734,0.56402l0.03898,9.60492c0.04009,0.51812,0.14736,2.13774-0.02184,2.72886
		C20.05476,47.8509,19.18688,47.99965,18.40306,47.99965z"/>
	<path fill="#485351" d="M12.26834,38.30975c-0.68788,0-1.00722,0.0177-1.62791-0.19464
		c-0.22284-0.07631-0.4526-0.48992-0.46006-0.72548l-0.12783-3.70695l0.12623-3.86397l-0.02141-4.04315l-2.17704,0.18559
		l-7.22166,0.0788C0.616,26.03304,0.3609,25.78107,0.25362,25.67573C0.14607,25.57038,0.00138,24.60204,0,24.45163l0.00901-1.74686
		c-0.00111-0.15151,0.06683-2.17711,0.17383-2.28439c0.10644-0.10645,0.38007-0.25012,0.53047-0.25012l6.22854,0.03898
		l6.62889-0.27344c0.03484-0.00166,0.07078,0.00028,0.10617,0.00553l1.05698,0.15649
		c0.27206,0.04037,0.47582,0.2704,0.48301,0.54522l0.1175,4.49529l-0.19575,6.42097l0.03954,5.89068
		c0.00194,0.27538-0.19464,0.51232-0.46559,0.56098C14.64902,38.02258,13.36237,38.30975,12.26834,38.30975z M11.02136,37.38005
		c0.87948,0.18635,2.30185,0.12658,3.02263,0.03811l-0.03752-5.87212l0.19547-6.42595l-0.10451-3.97164l-0.53361-0.07907
		l-6.60235,0.27178l-5.93636-0.20122c-0.09506-0.00058-0.17827,0.0637-0.20171,0.15582l0.06788,3.5744l7.05888-0.04094
		l2.03554,0.1564c0.15234-0.00332,0.9253,0.24294,1.03672,0.34855c0.11115,0.10589,0.19616,2.07361,0.19754,2.22705l0.04299,2.68425
		l-0.18017,3.39287L11.02136,37.38005z"/>
</g>
<rect x="44.13906" y="10.88731" fill="none" width="141.15332" height="15.5"/>
<text transform="matrix(1 0 0 1 44.13912 21.29413)" fill="#008275" font-family="BourtonHandLineBold" font-size="16.492px">South Charlotte</text>
<text transform="matrix(1 0 0 1 44.13912 21.29413)" fill="none" stroke="#008275" stroke-width="0.31" stroke-linecap="round" stroke-linejoin="round" stroke-miterlimit="10" font-family="BourtonHandLineBold" font-size="16.492px">South Charlotte</text>
<rect x="44.13906" y="26.69731" fill="none" width="138.67334" height="15.5"/>
<text transform="matrix(1 0 0 1 44.13912 35.06952)" fill="#485351" font-family="BourtonHandLineBold" font-size="13.268px">Presbyterian church</text>
<text transform="matrix(1 0 0 1 44.13912 35.06952)" fill="none" stroke="#485351" stroke-width="0.248" stroke-linecap="round" stroke-linejoin="round" stroke-miterlimit="10" font-family="BourtonHandLineBold" font-size="13.268px">Presbyterian church</text>
</svg>
